<?xml version="1.0" standalone="no"?>
<!DOCTYPE svg PUBLIC "-//W3C//DTD SVG 20010904//EN"
 "http://www.w3.org/TR/2001/REC-SVG-20010904/DTD/svg10.dtd">
<svg version="1.0" xmlns="http://www.w3.org/2000/svg"
 width="260.000000pt" height="260.000000pt" viewBox="0 0 260.000000 260.000000"
 preserveAspectRatio="xMidYMid meet">
<metadata>
Created by potrace 1.11, written by Peter Selinger 2001-2013
</metadata>
<g transform="translate(0.000000,260.000000) scale(0.100000,-0.100000)"
fill="#000000" stroke="none">
<path d="M91 2518 c-23 -8 -34 -38 -24 -64 10 -27 23 -34 68 -34 59 0 112 -18
117 -38 3 -10 5 -337 5 -726 1 -680 0 -709 -18 -727 -11 -11 -31 -19 -46 -20
-77 -2 -109 -10 -125 -30 -20 -24 -9 -58 20 -60 75 -6 762 -4 780 3 26 9 30
49 7 68 -9 7 -50 15 -93 18 -44 2 -84 10 -92 18 -14 12 -16 63 -17 379 l-2
365 31 0 c52 0 104 -37 136 -99 37 -69 53 -145 78 -366 13 -116 64 -211 160
-294 l39 -35 0 -325 c0 -179 -1 -338 -4 -354 -5 -36 -30 -49 -104 -49 -45 -1
-65 -6 -78 -19 -23 -23 -23 -29 -5 -55 14 -18 30 -19 393 -18 406 1 514 6 632
30 255 52 476 230 568 457 95 234 94 537 -3 746 -114 248 -338 401 -651 447
-26 3 -57 8 -68 10 -11 3 -137 7 -280 10 -243 5 -365 9 -374 13 -2 0 19 13 47
29 144 77 220 209 210 363 -9 131 -93 250 -213 304 -57 25 -128 41 -230 51
-93 9 -840 11 -864 2z m764 -129 c82 -57 117 -196 93 -376 -15 -110 -52 -179
-113 -211 -44 -23 -155 -43 -161 -28 -6 19 3 610 11 628 3 9 16 18 28 20 38 6
110 -11 142 -33z m915 -755 c170 -47 271 -201 309 -469 10 -74 8 -469 -3 -520
-28 -130 -43 -180 -77 -252 -72 -151 -181 -230 -330 -240 -101 -7 -126 -1
-134 36 -3 16 -6 134 -6 262 0 371 -4 332 34 352 48 26 71 71 70 135 -1 44 -6
59 -26 79 -14 14 -37 25 -51 26 -30 0 -27 -35 -27 317 0 135 4 247 10 262 8
22 17 27 53 30 62 4 115 -1 178 -18z"/>
</g>
</svg>
